<svg width="27" height="27" viewBox="0 0 27 27" fill="none" xmlns="http://www.w3.org/2000/svg">
<rect width="27" height="27" fill="#FFF1E7"/>
<path d="M27 27H24.8906V26.1562H26.1562V24.4688H27V27ZM22.7812 27H20.6719V26.1562H22.7812V27ZM18.5625 27H16.4531V26.1562H18.5625V27ZM14.3438 27H12.2344V26.1562H14.3438V27ZM10.125 27H8.01562V26.1562H10.125V27ZM5.90625 27H3.79688V26.1562H5.90625V27ZM1.6875 27H0V26.1562H1.6875V27ZM0.84375 24.4688H0V22.3594H0.84375V24.4688ZM0.84375 20.25H0V18.1406H0.84375V20.25ZM0.84375 16.0312H0V13.9219H0.84375V16.0312ZM0.84375 11.8125H0V9.70312H0.84375V11.8125ZM0.84375 7.59375H0V5.48438H0.84375V7.59375ZM0.84375 3.375H0V1.26562H0.84375V3.375ZM2.95312 0.84375H0.84375V0H2.95312V0.84375ZM7.17188 0.84375H5.0625V0H7.17188V0.84375ZM11.3906 0.84375H9.28125V0H11.3906V0.84375ZM15.6094 0.84375H13.5V0H15.6094V0.84375ZM19.8281 0.84375H17.7188V0H19.8281V0.84375ZM24.0469 0.84375H21.9375V0H24.0469V0.84375ZM27 1.26562H26.1562V0.84375V0H27V1.26562ZM27 5.48438H26.1562V3.375H27V5.48438ZM27 9.70312H26.1562V7.59375H27V9.70312ZM27 13.9219H26.1562V11.8125H27V13.9219ZM27 18.1406H26.1562V16.0312H27V18.1406ZM27 22.3594H26.1562V20.25H27V22.3594Z" fill="#F17925"/>
<path d="M14.1328 17.7188H12.8672V9.27703H14.1328V17.7188Z" fill="#FE634E"/>
<path d="M17.723 14.1328H9.28125V12.8672H17.723V14.1328Z" fill="#FE634E"/>
</svg>
