<svg width="28" height="27" viewBox="0 0 28 27" fill="none" xmlns="http://www.w3.org/2000/svg">
<path d="M27.222 27H25.1121V26.1562H26.3781V24.4688H27.222V27ZM23.0022 27H20.8922V26.1562H23.0022V27ZM18.7823 27H16.6723V26.1562H18.7823V27ZM14.5624 27H12.4525V26.1562H14.5624V27ZM10.3425 27H8.2326V26.1562H10.3425V27ZM6.12267 27H4.01273V26.1562H6.12267V27ZM1.90279 27H0.214844V26.1562H1.90279V27ZM1.05882 24.4688H0.214844V22.3594H1.05882V24.4688ZM1.05882 20.25H0.214844V18.1406H1.05882V20.25ZM1.05882 16.0312H0.214844V13.9219H1.05882V16.0312ZM1.05882 11.8125H0.214844V9.70312H1.05882V11.8125ZM1.05882 7.59375H0.214844V5.48438H1.05882V7.59375ZM1.05882 3.375H0.214844V1.26562H1.05882V3.375ZM3.16876 0.84375H1.05882V0H3.16876V0.84375ZM7.38863 0.84375H5.27869V0H7.38863V0.84375ZM11.6085 0.84375H9.49856V0H11.6085V0.84375ZM15.8284 0.84375H13.7184V0H15.8284V0.84375ZM20.0482 0.84375H17.9383V0H20.0482V0.84375ZM24.2681 0.84375H22.1582V0H24.2681V0.84375ZM27.222 1.26562H26.3781V0.84375V0H27.222V1.26562ZM27.222 5.48438H26.3781V3.375H27.222V5.48438ZM27.222 9.70312H26.3781V7.59375H27.222V9.70312ZM27.222 13.9219H26.3781V11.8125H27.222V13.9219ZM27.222 18.1406H26.3781V16.0312H27.222V18.1406ZM27.222 22.3594H26.3781V20.25H27.222V22.3594Z" fill="#FE634E"/>
<path d="M14.3516 17.7188H13.0859V9.27703H14.3516V17.7188Z" fill="#FE634E"/>
<path d="M17.944 14.1328H9.5V12.8672H17.944V14.1328Z" fill="#FE634E"/>
</svg>
