<svg width="8" height="4" viewBox="0 0 8 4" fill="none" xmlns="http://www.w3.org/2000/svg">
<path d="M3.98175 3.99999C4.05725 4.00037 4.1321 3.98777 4.20199 3.9629C4.27189 3.93803 4.33547 3.90138 4.38907 3.85507L7.83128 0.856606C7.93931 0.762502 8 0.634871 8 0.501788C8 0.368706 7.93931 0.241074 7.83128 0.14697C7.72325 0.0528668 7.57673 0 7.42395 0C7.27117 0 7.12465 0.0528668 7.01662 0.14697L3.98175 2.79561L0.946868 0.151968C0.837118 0.0700968 0.695945 0.0273155 0.551558 0.0321736C0.407171 0.0370316 0.270206 0.0891713 0.168033 0.178173C0.0658603 0.267174 0.00600529 0.386483 0.0004282 0.512256C-0.00514889 0.638029 0.0439625 0.761004 0.13795 0.856606L3.58016 3.85507C3.68701 3.94739 3.83124 3.99944 3.98175 3.99999Z" fill="#353F4F"/>
</svg>
