<svg width="52" height="52" viewBox="0 0 52 52" fill="none" xmlns="http://www.w3.org/2000/svg">
<circle cx="25.6079" cy="25.6079" r="25.6079" fill="#FFE9E9"/>
<path d="M26 12C18.272 12 12 18.272 12 26C12 33.728 18.272 40 26 40C33.728 40 40 33.728 40 26C40 18.272 33.728 12 26 12ZM14.8 26C14.8 19.812 19.812 14.8 26 14.8C28.59 14.8 30.97 15.682 32.86 17.166L17.166 32.86C15.6283 30.9045 14.7947 28.4877 14.8 26ZM26 37.2C23.41 37.2 21.03 36.318 19.14 34.834L34.834 19.14C36.3717 21.0955 37.2053 23.5123 37.2 26C37.2 32.188 32.188 37.2 26 37.2Z" fill="#BF453A"/>
</svg>
