<svg
      width="19"
      height="18"
      viewBox="0 0 23 22"
      fill="none"
      xmlns="http://www.w3.org/2000/svg"
    >
      <path
        fill-rule="evenodd"
        clip-rule="evenodd"
        d="M11.3529 22C8.41444 22 5.65639 20.853 3.5814 18.778C1.50642 16.703 0.359375 13.932 0.359375 10.9936C0.359375 8.05507 1.50642 5.29701 3.5814 3.22203C5.65639 1.14704 8.41444 0 11.3529 0C14.2914 0 17.0624 1.14704 19.1373 3.22203C21.2123 5.29701 22.3594 8.05507 22.3594 10.9936C22.3594 13.932 21.2123 16.703 19.1373 18.778C17.0624 20.853 14.2914 22 11.3529 22Z"
        fill="white"
      />
      <path
        fill-rule="evenodd"
        clip-rule="evenodd"
        d="M12.5037 16.8227H10.2225C10.055 16.8227 9.91321 16.6938 9.91321 16.5263V12.4408H5.84056C5.67302 12.4408 5.53125 12.3119 5.53125 12.1443V9.86315C5.53125 9.6956 5.67302 9.55383 5.84056 9.55383H9.91321V5.48119C9.91321 5.31364 10.055 5.17188 10.2225 5.17188H12.5037C12.6713 5.17188 12.8001 5.31364 12.8001 5.48119V9.55383H16.8857C17.0532 9.55383 17.1821 9.6956 17.1821 9.86315V12.1443C17.1821 12.3119 17.0532 12.4408 16.8857 12.4408H12.8001V16.5263C12.8001 16.6938 12.6713 16.8227 12.5037 16.8227Z"
        fill="#18283D"
      />
    </svg>