<svg width="52" height="52" viewBox="0 0 52 52" fill="none" xmlns="http://www.w3.org/2000/svg">
<circle cx="25.6079" cy="25.6079" r="25.6079" fill="#FFF1E7"/>
<path d="M38.985 16.0885C38.9838 16.0796 38.9828 16.0708 38.9815 16.0619C38.9775 16.0339 38.9728 16.006 38.9673 15.9783C38.9642 15.9619 38.9604 15.9456 38.9568 15.9293C38.9517 15.907 38.9468 15.8848 38.9409 15.8627C38.9304 15.8235 38.9188 15.7847 38.9055 15.7464C38.9015 15.7349 38.8977 15.7234 38.8935 15.712C38.8902 15.7031 38.8866 15.6943 38.8831 15.6855C38.8759 15.667 38.8685 15.6485 38.8606 15.6302C38.8585 15.6253 38.8563 15.6205 38.8541 15.6157C38.8444 15.5939 38.8343 15.5722 38.8237 15.5508C38.8223 15.548 38.8209 15.5452 38.8195 15.5424C38.8079 15.5194 38.7958 15.4966 38.7831 15.4741C38.7821 15.4722 38.7809 15.4703 38.7799 15.4683C38.7668 15.4454 38.7533 15.4228 38.7391 15.4005C38.738 15.3986 38.7368 15.3967 38.7356 15.3949C38.7216 15.3729 38.7071 15.3514 38.6921 15.3301C38.6905 15.3278 38.6889 15.3254 38.6872 15.3231C38.6726 15.3027 38.6576 15.2827 38.6421 15.263C38.6397 15.2599 38.6374 15.2568 38.635 15.2537C38.6201 15.2351 38.6048 15.2168 38.5891 15.1987C38.5859 15.195 38.5828 15.1911 38.5794 15.1874C38.564 15.1698 38.548 15.1527 38.5318 15.1358C38.5281 15.1321 38.5247 15.1282 38.5211 15.1244C38.5012 15.1042 38.481 15.0843 38.4601 15.0649L36.5016 13.2555L34.5432 11.4459C34.5163 11.421 34.4884 11.3976 34.4602 11.3746C34.4545 11.37 34.4487 11.3653 34.4429 11.3607C34.3834 11.3139 34.3212 11.2711 34.2563 11.2329C34.2544 11.2318 34.2525 11.2306 34.2506 11.2295C34.2108 11.2062 34.1698 11.1852 34.1283 11.1653C34.12 11.1614 34.1116 11.1576 34.1033 11.1538C34.0657 11.1365 34.0277 11.1207 33.989 11.1063C33.9846 11.1046 33.9803 11.1029 33.9759 11.1013C33.8842 11.0679 33.7896 11.0428 33.693 11.0259C33.6918 11.0257 33.6908 11.0254 33.6896 11.0251C33.6884 11.025 33.6872 11.025 33.6861 11.0247C33.5933 11.009 33.4989 11 33.4033 11H22.9517C21.8931 11 21.0319 11.8612 21.0319 12.9197V25.6488C20.9988 25.6484 20.9658 25.6475 20.9326 25.6475C16.5586 25.6475 13 29.2061 13 33.5802C13 37.9542 16.5584 41.5129 20.9326 41.5129C24.4702 41.5129 27.4738 39.1851 28.4936 35.9811H37.0803C38.1388 35.9811 39 35.1199 39 34.0614V16.2986C39 16.2279 38.9939 16.1579 38.985 16.0885ZM34.1839 12.7368L37.3152 15.6299H34.478C34.3158 15.6299 34.1839 15.498 34.1839 15.3358V12.7368ZM27.5646 34.7892C27.4898 35.2007 27.3772 35.5991 27.2311 35.9811C26.2616 38.5159 23.8041 40.321 20.9326 40.321C17.2158 40.321 14.1919 37.2971 14.1919 33.5802C14.1919 29.8634 17.2158 26.8395 20.9326 26.8395C20.9658 26.8395 20.9988 26.8403 21.0319 26.8408C21.4389 26.8467 21.8372 26.8888 22.2238 26.9641C25.3251 27.5682 27.6734 30.305 27.6734 33.5803C27.6734 33.9928 27.6359 34.3968 27.5646 34.7892ZM37.8082 34.0614H37.8081C37.8081 34.4627 37.4816 34.7892 37.0803 34.7892H28.7733C28.8339 34.3949 28.8653 33.9911 28.8653 33.5802C28.8653 29.6458 25.9859 26.3717 22.2238 25.7532V12.9197C22.2238 12.5184 22.5503 12.1919 22.9517 12.1919H32.992V15.3357C32.992 16.1551 33.6586 16.8217 34.478 16.8217H37.8082V34.0614Z" fill="#F17925"/>
<path d="M22.2296 28.0743C21.8458 27.9813 21.4471 27.927 21.0376 27.9161C20.9869 27.9148 20.9359 27.9141 20.8848 27.9141C17.7325 27.9141 15.168 30.4786 15.168 33.6309C15.168 34.6692 15.4493 35.6861 15.9814 36.5718C16.151 36.8539 16.517 36.9452 16.7992 36.7756C17.0813 36.6061 17.1726 36.24 17.0031 35.9578C16.5823 35.2576 16.3599 34.453 16.3599 33.6309C16.3599 31.1359 18.3898 29.106 20.8848 29.106C20.9361 29.106 20.9868 29.1082 21.0376 29.1098C21.4511 29.1237 21.8511 29.192 22.2296 29.31C24.0699 29.884 25.4097 31.604 25.4097 33.631C25.4097 34.0302 25.3572 34.4174 25.2597 34.7864C25.1474 35.2112 24.9752 35.6118 24.752 35.9783C23.9572 37.2829 22.521 38.156 20.8848 38.156C20.6762 38.156 20.4665 38.1417 20.2619 38.1135C19.9357 38.0689 19.6351 38.2965 19.5902 38.6226C19.5453 38.9486 19.7732 39.2494 20.0993 39.2943C20.3577 39.3299 20.622 39.3479 20.8848 39.3479C23.201 39.3479 25.1999 37.9633 26.0973 35.9783C26.2679 35.6009 26.3987 35.2018 26.4843 34.7864C26.5612 34.4131 26.6017 34.0266 26.6017 33.631C26.6017 30.9417 24.7351 28.6806 22.2296 28.0743Z" fill="#F17925"/>
<path d="M25.5686 18.4297C25.2395 18.4297 24.9727 18.6965 24.9727 19.0256C24.9727 19.3548 25.2395 19.6216 25.5686 19.6216H34.4619C34.791 19.6216 35.0579 19.3548 35.0579 19.0256C35.0579 18.6965 34.791 18.4297 34.4619 18.4297H25.5686Z" fill="#F17925"/>
<path d="M32.6741 22.8225C32.6741 22.4934 32.4072 22.2266 32.0781 22.2266H25.5686C25.2395 22.2266 24.9727 22.4934 24.9727 22.8225C24.9727 23.1517 25.2395 23.4185 25.5686 23.4185H32.0781C32.4072 23.4185 32.6741 23.1517 32.6741 22.8225Z" fill="#F17925"/>
<path d="M34.4652 26.0156H28.721C28.3919 26.0156 28.125 26.2824 28.125 26.6116C28.125 26.9407 28.3919 27.2075 28.721 27.2075H34.4652C34.7943 27.2075 35.0612 26.9407 35.0612 26.6116C35.0612 26.2824 34.7943 26.0156 34.4652 26.0156Z" fill="#F17925"/>
<path d="M34.466 29.8125H30.3147C29.9856 29.8125 29.7188 30.0793 29.7188 30.4085C29.7188 30.7376 29.9856 31.0044 30.3147 31.0044H34.466C34.7951 31.0044 35.062 30.7376 35.062 30.4085C35.062 30.0793 34.7951 29.8125 34.466 29.8125Z" fill="#F17925"/>
<path d="M20.8738 34.2245H21.0344H22.239H22.8759C23.205 34.2245 23.4718 33.9577 23.4718 33.6286C23.4718 33.2994 23.205 33.0326 22.8759 33.0326H22.2185H21.2171L21.0266 32.704L19.8304 30.6409C19.6652 30.3562 19.3008 30.2591 19.0158 30.4242C18.7311 30.5894 18.6342 30.954 18.7992 31.2387L20.3582 33.9274C20.4648 34.1113 20.6612 34.2245 20.8738 34.2245Z" fill="#F17925"/>
<path d="M18.5562 37.6493C18.5413 37.6129 18.5227 37.5783 18.5013 37.5462C18.4799 37.5134 18.4549 37.483 18.4275 37.4556C18.4 37.4282 18.3696 37.4031 18.3369 37.3817C18.3047 37.3602 18.2701 37.3417 18.2338 37.3268C18.198 37.3119 18.1605 37.3 18.1223 37.2929C18.0454 37.2774 17.9662 37.2774 17.8893 37.2929C17.8518 37.3 17.8142 37.3119 17.7779 37.3268C17.7421 37.3417 17.7075 37.3602 17.6754 37.3817C17.6426 37.4031 17.6122 37.4282 17.5848 37.4556C17.5567 37.483 17.5323 37.5134 17.5103 37.5462C17.4888 37.5783 17.4703 37.6129 17.4554 37.6493C17.4405 37.685 17.4292 37.7226 17.4215 37.7607C17.4137 37.7988 17.4102 37.8382 17.4102 37.8769C17.4102 37.9156 17.4138 37.955 17.4215 37.9937C17.4292 38.0313 17.4405 38.0688 17.4554 38.1052C17.4703 38.1409 17.4888 38.1755 17.5103 38.2077C17.5323 38.2404 17.5567 38.2708 17.5848 38.2982C17.6122 38.3257 17.6426 38.3507 17.6754 38.3721C17.7075 38.3936 17.7421 38.4121 17.7779 38.427C17.8142 38.4419 17.8518 38.4538 17.8893 38.4609C17.928 38.4687 17.9674 38.4729 18.0061 38.4729C18.0448 38.4729 18.0842 38.4687 18.1223 38.4609C18.1605 38.4538 18.1981 38.4419 18.2338 38.427C18.2701 38.4121 18.3047 38.3936 18.3369 38.3721C18.3696 38.3507 18.4 38.3257 18.4275 38.2982C18.4549 38.2708 18.4799 38.2404 18.5013 38.2077C18.5227 38.1755 18.5413 38.1409 18.5562 38.1052C18.5711 38.0688 18.5823 38.0313 18.5901 37.9937C18.5979 37.955 18.602 37.9156 18.602 37.8769C18.602 37.8382 18.5979 37.7988 18.5901 37.7607C18.5824 37.7226 18.5711 37.685 18.5562 37.6493Z" fill="#F17925"/>
<path d="M35.0131 22.5633C34.9982 22.527 34.9797 22.4924 34.9583 22.4602C34.9369 22.4274 34.9118 22.397 34.8844 22.3696C34.857 22.3422 34.8266 22.3172 34.7938 22.2957C34.7616 22.2743 34.7264 22.2558 34.6907 22.2409C34.6549 22.226 34.6174 22.2147 34.5793 22.2069C34.5024 22.1914 34.4232 22.1914 34.3463 22.2069C34.3081 22.2147 34.2705 22.226 34.2348 22.2409C34.1991 22.2558 34.1645 22.2743 34.1318 22.2957C34.0996 22.3172 34.0692 22.3422 34.0417 22.3696C34.0137 22.397 33.9893 22.4274 33.9672 22.4602C33.9459 22.4924 33.9273 22.527 33.9124 22.5633C33.8975 22.5991 33.8863 22.6366 33.8785 22.6748C33.8707 22.7129 33.8672 22.7522 33.8672 22.791C33.8672 22.8297 33.8708 22.869 33.8785 22.9078C33.8863 22.9453 33.8975 22.9829 33.9124 23.0192C33.9273 23.055 33.9459 23.0895 33.9672 23.1217C33.9893 23.1545 34.0137 23.1849 34.0417 23.2123C34.0692 23.2397 34.0996 23.2648 34.1318 23.2868C34.1646 23.3083 34.1991 23.3267 34.2348 23.3416C34.2705 23.3565 34.3081 23.3679 34.3463 23.3756C34.385 23.3833 34.4243 23.3869 34.4631 23.3869C34.5018 23.3869 34.5412 23.3833 34.5793 23.3756C34.6174 23.3679 34.655 23.3565 34.6907 23.3416C34.7265 23.3267 34.7616 23.3083 34.7938 23.2868C34.8266 23.2648 34.857 23.2397 34.8844 23.2123C34.9118 23.1849 34.9369 23.1545 34.9583 23.1217C34.9797 23.0895 34.9982 23.055 35.0131 23.0192C35.028 22.9829 35.0393 22.9453 35.0471 22.9078C35.0548 22.869 35.059 22.8297 35.059 22.791C35.059 22.7522 35.0548 22.7129 35.0471 22.6748C35.0394 22.6366 35.028 22.5991 35.0131 22.5633Z" fill="#F17925"/>
</svg>
