<svg width="46" height="46" viewBox="0 0 46 46" fill="none" xmlns="http://www.w3.org/2000/svg">
<path d="M40 22.6889C40 18.797 37.4681 15.4838 33.974 14.2974C35.0664 13.4511 35.7753 12.1272 35.7753 10.637C35.7753 8.0834 33.6991 6 31.1383 6C28.5774 6 26.5013 8.0834 26.5013 10.637C26.5013 12.1272 27.2102 13.4511 28.3026 14.2974C28.0349 14.3843 27.7745 14.4928 27.514 14.6085C26.4145 13.3426 24.8013 12.5323 22.9928 12.5323C21.1843 12.5323 19.5711 13.3353 18.4715 14.6085C18.2111 14.4928 17.9506 14.3843 17.683 14.2974C18.7753 13.4511 19.4843 12.1272 19.4843 10.637C19.4843 8.0834 17.4081 6 14.8472 6C12.2864 6 10.2247 8.0834 10.2247 10.637C10.2247 12.1272 10.9336 13.4511 12.026 14.2974C8.53191 15.4838 6 18.7898 6 22.6889C6 23.434 6.32553 24.1285 6.94043 24.7072C8.44511 26.1179 11.5557 26.7255 14.4855 26.7762C12.5323 28.8668 11.3243 31.6591 11.3243 34.7409C11.3243 35.9489 11.997 37.6345 15.2162 38.8209C17.2851 39.5804 20.0485 40 23 40C28.8089 40 34.6757 38.3723 34.6757 34.7409C34.6757 31.6591 33.4677 28.8596 31.5072 26.7689C34.437 26.7183 37.5404 26.1106 39.0523 24.7072C39.6745 24.1285 40 23.434 40 22.6889ZM27.9481 10.637C27.9481 8.87915 29.3804 7.44681 31.1383 7.44681C32.8962 7.44681 34.3285 8.87915 34.3285 10.637C34.3285 12.3949 32.8962 13.8272 31.1383 13.8272C29.3804 13.8272 27.9481 12.3949 27.9481 10.637ZM23 13.9864C25.503 13.9864 27.543 16.0264 27.543 18.5294C27.543 21.0323 25.503 23.0723 23 23.0723C20.497 23.0723 18.457 21.0323 18.457 18.5294C18.457 16.0264 20.497 13.9864 23 13.9864ZM11.6715 10.637C11.6715 8.87915 13.1038 7.44681 14.8617 7.44681C16.6196 7.44681 18.0519 8.87915 18.0519 10.637C18.0519 12.3949 16.6196 13.8272 14.8617 13.8272C13.1038 13.8272 11.6715 12.3949 11.6715 10.637ZM7.44681 22.6889C7.44681 18.6017 10.7745 15.274 14.8617 15.274C15.8383 15.274 16.7715 15.4694 17.6613 15.8311C17.2489 16.6413 17.0102 17.56 17.0102 18.5294C17.0102 20.6272 18.0953 22.4719 19.7374 23.5426C18.4426 23.9187 17.2417 24.5191 16.1711 25.2932C12.6481 25.5102 9.19021 24.8302 7.93149 23.6438C7.60596 23.34 7.44681 23.0289 7.44681 22.6889ZM23 38.5532C17.1694 38.5532 12.7711 36.9111 12.7711 34.7409C12.7711 29.0983 17.3574 24.5119 23 24.5119C28.6426 24.5119 33.2289 29.0983 33.2289 34.7409C33.2289 36.9111 28.8306 38.5532 23 38.5532ZM38.0685 23.6511C36.8026 24.8302 33.3591 25.5174 29.8289 25.2932C28.7583 24.5191 27.5574 23.9187 26.2626 23.5426C27.8974 22.4719 28.9898 20.6272 28.9898 18.5294C28.9898 17.56 28.7511 16.6413 28.3387 15.8311C29.2285 15.4694 30.1617 15.274 31.1383 15.274C35.2255 15.274 38.5532 18.6017 38.5532 22.6889C38.5532 23.0289 38.394 23.3472 38.0685 23.6511Z" fill="#232323"/>
<circle cx="23" cy="23" r="22.5" stroke="#232323"/>
</svg>
