<svg width="22" height="15" viewBox="0 0 22 15" fill="none" xmlns="http://www.w3.org/2000/svg">
<path d="M11.0025 5.16837C11.0681 5.16478 11.1338 5.16478 11.1994 5.16837L11.326 4.11345C11.2186 4.10049 11.1106 4.09462 11.0025 4.09587C10.5689 4.09633 10.1397 4.18236 9.73939 4.34902C9.33913 4.51569 8.97569 4.75972 8.66992 5.06713C8.36415 5.37453 8.12206 5.73926 7.95753 6.14041C7.79299 6.54156 7.70925 6.97123 7.7111 7.40481C7.70985 7.51408 7.71572 7.62333 7.72869 7.73184L8.78361 7.59821C8.78001 7.53379 8.78001 7.46923 8.78361 7.40481C8.78359 6.8147 9.0168 6.2485 9.43242 5.82959C9.84804 5.41068 10.4124 5.17301 11.0025 5.16837Z" fill="#18283D"/>
<path d="M5.17331 10.6346C3.93176 9.69569 2.8078 8.61068 1.82569 7.40302C2.80325 6.20041 6.59394 1.92797 11 1.92797C11.9468 1.93802 12.8841 2.11786 13.7674 2.45895L14.1366 1.47084C13.1354 1.08493 12.073 0.882436 11 0.873047C5.37374 0.873047 0.914936 6.85094 0.728567 7.09006L0.5 7.40302L0.728567 7.71598C1.82588 9.13437 3.10782 10.3998 4.54035 11.4785L5.17331 10.6346Z" fill="#18283D"/>
<path d="M21.2707 7.0926C20.1734 5.67421 18.8915 4.40882 17.459 3.33004C17.1425 3.09444 16.8155 2.87642 16.4849 2.66544L18.4049 0.745479L17.6594 0L3.59375 14.0656L4.33923 14.8111L6.44907 12.7013C6.90422 12.9445 7.37397 13.1595 7.85564 13.3448C8.85992 13.7276 9.92458 13.9276 10.9993 13.9355C16.6256 13.9355 21.0844 7.95764 21.2707 7.71852L21.4993 7.40556L21.2707 7.0926ZM13.2252 7.21216C13.2288 7.27658 13.2288 7.34114 13.2252 7.40556C13.2252 7.99688 12.991 8.56413 12.5739 8.98324C12.1568 9.40235 11.5906 9.63921 10.9993 9.642H10.7883C10.452 9.60721 10.1277 9.49789 9.83889 9.322L12.9052 6.25921C13.0818 6.54892 13.1912 6.87457 13.2252 7.21216ZM10.9993 12.8806C10.054 12.8704 9.11806 12.6917 8.23541 12.3531C7.90487 12.2266 7.57081 12.0789 7.23675 11.9136L9.07583 10.0745C9.54548 10.4156 10.098 10.6244 10.6758 10.6793C10.7835 10.6864 10.8916 10.6864 10.9993 10.6793C11.8689 10.6784 12.7029 10.3338 13.3194 9.72052C13.936 9.10727 14.2851 8.27515 14.2907 7.40556C14.2984 7.30373 14.2984 7.20146 14.2907 7.09963C14.2376 6.516 14.0287 5.95733 13.6858 5.48208L15.7359 3.43202C16.1122 3.6641 16.4849 3.90673 16.8436 4.17398C18.079 5.11399 19.197 6.19895 20.1736 7.40556C19.1961 8.60817 15.4054 12.8806 10.9993 12.8806Z" fill="#18283D"/>
</svg>
