<svg width="25" height="25" viewBox="0 0 25 25" fill="none" xmlns="http://www.w3.org/2000/svg">
<path d="M12.1406 0.109375C5.5132 0.109375 0.140625 5.48195 0.140625 12.1094C0.140625 18.7368 5.5132 24.1094 12.1406 24.1094C18.768 24.1094 24.1406 18.7368 24.1406 12.1094C24.1335 5.48491 18.7651 0.116547 12.1406 0.109375ZM16.1406 14.6964C16.547 15.0704 16.5732 15.703 16.1992 16.1094C15.8252 16.5157 15.1926 16.542 14.7862 16.168C14.7659 16.1493 14.7464 16.1297 14.7276 16.1094L12.1406 13.5234L9.55462 16.1094C9.15736 16.493 8.52431 16.482 8.14064 16.0848C7.76639 15.6972 7.76639 15.0829 8.14064 14.6954L10.7266 12.1094L8.14064 9.52337C7.75697 9.12611 7.76798 8.49306 8.16525 8.10939C8.55277 7.73514 9.16711 7.73514 9.55462 8.10939L12.1406 10.6954L14.7276 8.10939C15.1016 7.70303 15.7343 7.67678 16.1406 8.0508C16.547 8.42481 16.5732 9.05744 16.1992 9.4638C16.1805 9.48414 16.161 9.50364 16.1406 9.52239L13.5546 12.1094L16.1406 14.6964Z" fill="#FE634E"/>
</svg>
