<svg xmlns="http://www.w3.org/2000/svg" width="928" height="716" viewBox="0 0 928 716" fill="none">
<g id="Group 1321324082">
<g id="Group">
<path id="Vector" d="M206.541 179.286C194.831 173.776 175.471 182.736 169.301 195.836C157.521 220.846 195.631 257.056 209.491 253.166C224.981 248.826 228.041 189.396 206.541 179.286Z" stroke="#F07925" stroke-width="5" stroke-miterlimit="10" stroke-linecap="round" stroke-dasharray="20 20"/>
<path id="Vector_2" d="M147.991 235.926C143.811 233.506 99.5506 207.906 74.5106 228.166C56.9206 242.396 56.7506 272.806 69.9706 289.896C96.1506 323.746 177.321 308.566 185.741 284.346C191.411 268.036 164.781 245.636 148.001 235.926H147.991Z" stroke="#F07925" stroke-width="5" stroke-miterlimit="10" stroke-linecap="round" stroke-dasharray="20 20"/>
<path id="Vector_3" d="M204.931 653.925C312.661 627.185 435.071 599.965 625.151 604.595C731.451 607.185 755.541 574.195 836.111 533.185C907.921 496.625 943.191 423.935 921.531 382.735C899.661 341.145 833.051 357.705 778.501 295.785C753.661 267.585 758.031 247.825 743.691 216.555C698.271 117.545 528.041 40.1548 444.091 81.1048C333.191 135.215 428.001 369.005 304.031 432.875C225.621 473.275 166.351 395.715 88.9208 454.925C50.5608 484.255 3.64082 525.405 0.0108187 570.085C0.0108187 570.085 -5.06918 679.325 204.931 653.915V653.925Z" stroke="#F07925" stroke-width="4" stroke-miterlimit="10" stroke-linecap="round" stroke-dasharray="20 20"/>
</g>
<path id="Vector_4" d="M800.141 532.266C800.141 532.266 780.631 558.136 761.111 593.636C743.511 625.646 730.131 668.786 727.181 704.796C718.891 704.406 709.791 704.036 699.951 703.686C641.661 701.616 557.511 700.326 463.941 700.326C357.571 700.326 263.371 702.006 205.501 704.586C203.511 704.676 201.561 704.766 199.651 704.856C127.401 615.306 -18.0789 459.306 115.811 395.126C115.811 395.126 125.621 392.136 140.321 385.726C186.861 365.416 282.501 310.756 271.861 207.696C271.861 207.696 268.241 188.466 268.241 161.706C268.241 99.1363 288.051 -4.57368 420.291 0.156325C500.371 3.02632 574.131 43.7763 618.721 109.006C662.461 172.986 732.391 251.696 789.341 206.756C802.491 196.376 819.871 192.536 836.101 197.096C877.091 208.606 923.661 268.216 800.161 532.266H800.141Z" fill="#FDD5B9"/>
<path id="Vector_5" d="M906.481 708.279C906.481 712.509 708.341 715.949 463.931 715.949C326.021 715.949 202.851 714.859 121.691 713.139C103.001 712.749 86.5309 712.319 72.6309 711.859C63.4709 711.559 55.4309 711.249 48.5909 710.929C30.9909 710.109 21.3809 709.209 21.3809 708.279C21.3809 707.089 36.9809 705.969 64.8209 704.959C76.2209 704.549 89.6709 704.159 104.951 703.789C185.331 701.859 316.171 700.609 463.931 700.609C593.901 700.609 710.781 701.579 791.751 703.129C863.041 704.489 906.481 706.299 906.481 708.279Z" fill="#FFF0E6"/>
<g id="Group_2">
<path id="Vector_6" d="M606.281 145.236L577.291 199.566C576.191 201.626 573.631 202.406 571.581 201.306L523.541 175.666C521.481 174.566 520.701 172.006 521.801 169.956L556.131 105.626C557.231 103.566 559.791 102.786 561.841 103.886L599.631 124.056L599.751 124.436L606.281 145.236Z" fill="#FEE5D4" stroke="#F07925" stroke-miterlimit="10"/>
<path id="Vector_7" opacity="0.1" d="M606.281 145.236L595.591 139.526C593.911 138.636 593.281 136.546 594.181 134.876L599.751 124.426L606.281 145.226V145.236Z" fill="#010101" stroke="#F07925" stroke-miterlimit="10"/>
</g>
<path id="Vector_8" d="M559.311 155.848L560.221 154.138C561.011 152.658 562.011 151.548 563.221 150.788C564.431 150.038 566.201 149.489 568.541 149.149C570.771 148.858 572.331 148.488 573.231 148.038C574.131 147.588 574.821 146.919 575.291 146.029C575.821 145.029 575.861 144.068 575.401 143.158C574.941 142.238 574.051 141.428 572.731 140.728C570.421 139.498 567.391 138.849 563.641 138.779L563.821 132.388C568.271 132.298 572.421 133.278 576.261 135.328C579.431 137.018 581.541 139.118 582.591 141.638C583.651 144.158 583.501 146.688 582.141 149.218C581.241 150.908 580.071 152.168 578.651 152.988C577.231 153.808 575.031 154.408 572.061 154.798C570.001 155.098 568.631 155.438 567.931 155.798C567.231 156.158 566.641 156.798 566.151 157.718L565.411 159.098L559.301 155.839L559.311 155.848ZM554.371 163.339C555.061 162.049 555.931 161.258 556.971 160.968C558.011 160.678 559.201 160.879 560.521 161.589C561.801 162.269 562.601 163.138 562.941 164.188C563.281 165.238 563.111 166.389 562.441 167.648C561.791 168.858 560.931 169.628 559.851 169.948C558.771 170.268 557.601 170.098 556.341 169.418C555.051 168.728 554.231 167.858 553.891 166.788C553.551 165.728 553.711 164.578 554.371 163.328V163.339Z" fill="#F07925"/>
<g id="Group_3">
<g id="Group_4">
<path id="Vector_9" d="M211.381 433.755L177.111 486.335C175.811 488.325 173.141 488.885 171.151 487.595L124.651 457.295C122.661 455.995 122.101 453.325 123.391 451.335L163.971 389.075C165.271 387.085 167.941 386.525 169.931 387.815L206.511 411.655L206.601 412.045L211.381 433.755Z" fill="#FEE5D4" stroke="#F07925" stroke-miterlimit="10"/>
<path id="Vector_10" opacity="0.1" d="M211.381 433.755L201.031 427.015C199.411 425.955 198.951 423.785 200.011 422.165L206.601 412.055L211.381 433.765V433.755Z" fill="#010101" stroke="#F07925" stroke-miterlimit="10"/>
</g>
<path id="Vector_11" d="M174.161 458.303L167.961 454.263L168.321 440.693L156.051 446.493L150.241 442.703L167.341 435.033L167.471 417.453L173.461 421.353L172.971 434.163L184.391 428.473L190.241 432.283L173.931 439.743L174.171 458.293L174.161 458.303Z" fill="#F07925"/>
</g>
<g id="Group_5">
<path id="Vector_12" d="M807.081 267.225L829.561 325.825C830.411 328.045 829.301 330.535 827.081 331.385L775.261 351.265C773.041 352.115 770.551 351.005 769.701 348.785L743.081 279.395C742.231 277.175 743.341 274.685 745.561 273.835L786.331 258.195L786.701 258.355L807.081 267.215V267.225Z" fill="#FEE5D4" stroke="#F07925" stroke-miterlimit="10"/>
<path id="Vector_13" opacity="0.1" d="M807.081 267.225L795.551 271.645C793.741 272.335 791.721 271.435 791.021 269.625L786.701 258.355L807.081 267.215V267.225Z" fill="#010101" stroke="#F07925" stroke-miterlimit="10"/>
</g>
<g id="Group_6">
<path id="Vector_14" d="M801.831 317.717L797.441 319.397L791.311 316.007L789.021 322.627L784.911 324.207L788.301 315.077L780.221 310.827L784.461 309.197L790.191 312.457L792.191 306.227L796.331 304.637L793.161 313.377L801.841 317.697L801.831 317.717Z" fill="#F07925"/>
<g id="Group_7">
<path id="Vector_15" d="M799.941 278.348L759.881 293.718C759.401 293.898 758.861 293.658 758.681 293.188C758.501 292.708 758.741 292.168 759.211 291.988L799.271 276.618C799.751 276.438 800.291 276.678 800.471 277.148C800.651 277.628 800.411 278.168 799.941 278.348Z" fill="#F07925"/>
<path id="Vector_16" d="M801.671 282.677L761.611 298.047C761.131 298.227 760.591 297.987 760.411 297.517C760.231 297.037 760.471 296.497 760.941 296.317L801.001 280.947C801.481 280.767 802.021 281.007 802.201 281.477C802.381 281.957 802.141 282.497 801.671 282.677Z" fill="#F07925"/>
<path id="Vector_17" d="M803.391 287.009L763.331 302.379C762.851 302.559 762.311 302.319 762.131 301.849C761.951 301.369 762.191 300.829 762.661 300.649L802.721 285.279C803.201 285.099 803.741 285.339 803.921 285.809C804.101 286.289 803.861 286.829 803.391 287.009Z" fill="#F07925"/>
<path id="Vector_18" d="M805.121 291.337L765.061 306.707C764.581 306.887 764.041 306.647 763.861 306.177C763.681 305.697 763.921 305.157 764.391 304.977L804.451 289.607C804.931 289.427 805.471 289.667 805.651 290.137C805.831 290.617 805.591 291.157 805.121 291.337Z" fill="#F07925"/>
<path id="Vector_19" d="M806.531 295.809L766.471 311.179C765.991 311.359 765.451 311.119 765.271 310.649C765.091 310.169 765.331 309.629 765.801 309.449L805.861 294.079C806.341 293.899 806.881 294.139 807.061 294.609C807.241 295.089 807.001 295.629 806.531 295.809Z" fill="#F07925"/>
</g>
</g>
<path id="Vector_20" d="M220.631 587.553L245.911 645.003C246.871 647.183 245.881 649.723 243.701 650.673L192.901 673.033C190.721 673.993 188.181 673.003 187.231 670.823L157.291 602.803C156.331 600.623 157.321 598.083 159.501 597.133L199.461 579.543L199.841 579.683L220.631 587.553Z" fill="#FEE5D4" stroke="#F07925" stroke-miterlimit="10"/>
<path id="Vector_21" opacity="0.1" d="M220.631 587.554L209.321 592.534C207.551 593.314 205.481 592.514 204.701 590.734L199.841 579.684L220.631 587.554Z" fill="#010101" stroke="#F07925" stroke-miterlimit="10"/>
<g id="Group_8">
<path id="Vector_22" d="M217.821 638.235L213.521 640.125L207.231 637.035L205.261 643.755L201.231 645.535L204.181 636.255L195.901 632.405L200.061 630.575L205.941 633.555L207.641 627.235L211.701 625.445L208.951 634.325L217.831 638.225L217.821 638.235Z" fill="#F07925"/>
<g id="Group_9">
<path id="Vector_23" d="M214.031 599.004L174.761 616.284C174.291 616.494 173.741 616.284 173.541 615.804C173.331 615.334 173.541 614.784 174.021 614.584L213.291 597.304C213.761 597.094 214.311 597.304 214.511 597.784C214.721 598.254 214.511 598.804 214.031 599.004Z" fill="#F07925"/>
<path id="Vector_24" d="M215.961 603.242L176.691 620.522C176.221 620.732 175.671 620.522 175.471 620.042C175.261 619.572 175.471 619.022 175.951 618.822L215.221 601.542C215.691 601.332 216.241 601.542 216.441 602.022C216.651 602.492 216.441 603.042 215.961 603.242Z" fill="#F07925"/>
<path id="Vector_25" d="M217.901 607.484L178.631 624.764C178.161 624.974 177.611 624.764 177.411 624.284C177.201 623.814 177.411 623.264 177.891 623.064L217.161 605.784C217.631 605.574 218.181 605.784 218.381 606.264C218.591 606.734 218.381 607.284 217.901 607.484Z" fill="#F07925"/>
<path id="Vector_26" d="M219.841 611.723L180.571 629.003C180.101 629.213 179.551 629.003 179.351 628.523C179.141 628.053 179.351 627.503 179.831 627.303L219.101 610.023C219.571 609.813 220.121 610.023 220.321 610.503C220.531 610.973 220.321 611.523 219.841 611.723Z" fill="#F07925"/>
<path id="Vector_27" d="M221.451 616.125L182.181 633.405C181.711 633.615 181.161 633.405 180.961 632.925C180.751 632.455 180.961 631.905 181.441 631.705L220.711 614.425C221.181 614.215 221.731 614.425 221.931 614.905C222.141 615.375 221.931 615.925 221.451 616.125Z" fill="#F07925"/>
</g>
</g>
<g id="Group_10">
<g id="Group_11">
<path id="Vector_28" d="M396.121 172.846L421.401 230.296C422.361 232.476 421.371 235.016 419.191 235.966L368.391 258.326C366.211 259.286 363.671 258.296 362.721 256.116L332.781 188.096C331.821 185.916 332.811 183.376 334.991 182.426L374.951 164.836L375.331 164.976L396.121 172.846Z" fill="#FEE5D4" stroke="#F07925" stroke-miterlimit="10"/>
<path id="Vector_29" opacity="0.1" d="M396.121 172.847L384.811 177.827C383.041 178.607 380.971 177.807 380.191 176.027L375.331 164.977L396.121 172.847Z" fill="#010101" stroke="#F07925" stroke-miterlimit="10"/>
</g>
<g id="Group_12">
<path id="Vector_30" d="M393.311 223.524L389.011 225.414L382.721 222.324L380.751 229.044L376.721 230.824L379.671 221.544L371.391 217.694L375.551 215.864L381.431 218.844L383.131 212.524L387.191 210.734L384.441 219.614L393.321 223.514L393.311 223.524Z" fill="#F07925"/>
<g id="Group_13">
<path id="Vector_31" d="M389.521 184.285L350.251 201.565C349.781 201.775 349.231 201.565 349.031 201.085C348.821 200.615 349.031 200.065 349.511 199.865L388.781 182.585C389.251 182.375 389.801 182.585 390.001 183.065C390.211 183.535 390.001 184.085 389.521 184.285Z" fill="#F07925"/>
<path id="Vector_32" d="M391.461 188.523L352.191 205.803C351.721 206.013 351.171 205.803 350.971 205.323C350.761 204.853 350.971 204.303 351.451 204.103L390.721 186.823C391.191 186.613 391.741 186.823 391.941 187.303C392.151 187.773 391.941 188.323 391.461 188.523Z" fill="#F07925"/>
<path id="Vector_33" d="M393.401 192.766L354.131 210.046C353.661 210.256 353.111 210.046 352.911 209.566C352.701 209.096 352.911 208.546 353.391 208.346L392.661 191.066C393.131 190.856 393.681 191.066 393.881 191.546C394.091 192.016 393.881 192.566 393.401 192.766Z" fill="#F07925"/>
<path id="Vector_34" d="M395.331 197.016L356.061 214.296C355.591 214.506 355.041 214.296 354.841 213.816C354.631 213.346 354.841 212.796 355.321 212.596L394.591 195.316C395.061 195.106 395.611 195.316 395.811 195.796C396.021 196.266 395.811 196.816 395.331 197.016Z" fill="#F07925"/>
<path id="Vector_35" d="M396.951 201.414L357.681 218.694C357.211 218.904 356.661 218.694 356.461 218.214C356.251 217.744 356.461 217.194 356.941 216.994L396.211 199.714C396.681 199.504 397.231 199.714 397.431 200.194C397.641 200.664 397.431 201.214 396.951 201.414Z" fill="#F07925"/>
</g>
</g>
</g>
<path id="Vector_36" d="M660.291 333.176H267.571V618.146H660.291V333.176Z" fill="#FEEADC"/>
<path id="Vector_37" d="M660.281 297.406H267.711V333.256H660.281V297.406Z" fill="#F07925"/>
<g id="Group_14">
<path id="Vector_38" d="M285.871 319.398C289.201 319.398 291.901 316.828 291.901 313.658C291.901 310.488 289.201 307.918 285.871 307.918C282.541 307.918 279.841 310.488 279.841 313.658C279.841 316.828 282.541 319.398 285.871 319.398Z" fill="#E4E9F6"/>
<path id="Vector_39" d="M303.471 319.398C306.801 319.398 309.501 316.828 309.501 313.658C309.501 310.488 306.801 307.918 303.471 307.918C300.141 307.918 297.441 310.488 297.441 313.658C297.441 316.828 300.141 319.398 303.471 319.398Z" fill="#E4E9F6"/>
<path id="Vector_40" d="M321.061 319.398C324.391 319.398 327.091 316.828 327.091 313.658C327.091 310.488 324.391 307.918 321.061 307.918C317.73 307.918 315.031 310.488 315.031 313.658C315.031 316.828 317.73 319.398 321.061 319.398Z" fill="#E4E9F6"/>
</g>
<path id="Vector_41" d="M648.481 348.176H279.391V603.146H648.481V348.176Z" fill="#F4F6FB"/>
<path id="Vector_42" d="M521.51 410.33V522.43C521.51 526.68 518.07 530.12 513.82 530.12H414.69C410.44 530.12 407 526.68 407 522.43V389.69C407 385.44 410.44 382 414.69 382H492.67L493.18 382.51L521.5 410.33H521.51Z" fill="#F07925"/>
<path id="Vector_43" opacity="0.15" d="M521.221 410.785H499.161C495.701 410.785 492.901 407.985 492.901 404.525V382.965L521.221 410.785Z" fill="#010101"/>
<path id="No Data" d="M424.512 466V450.355H426.738L435.348 461.947L434.193 462.178V450.355H437.049V466H434.802L426.318 454.324L427.368 454.093V466H424.512ZM445.432 466.252C444.312 466.252 443.29 465.993 442.366 465.475C441.456 464.957 440.728 464.25 440.182 463.354C439.65 462.458 439.384 461.436 439.384 460.288C439.384 459.14 439.65 458.118 440.182 457.222C440.728 456.326 441.456 455.619 442.366 455.101C443.276 454.583 444.298 454.324 445.432 454.324C446.552 454.324 447.567 454.583 448.477 455.101C449.387 455.619 450.108 456.326 450.64 457.222C451.186 458.104 451.459 459.126 451.459 460.288C451.459 461.436 451.186 462.458 450.64 463.354C450.094 464.25 449.366 464.957 448.456 465.475C447.546 465.993 446.538 466.252 445.432 466.252ZM445.432 463.732C446.048 463.732 446.587 463.585 447.049 463.291C447.525 462.997 447.896 462.591 448.162 462.073C448.442 461.541 448.582 460.946 448.582 460.288C448.582 459.616 448.442 459.028 448.162 458.524C447.896 458.006 447.525 457.6 447.049 457.306C446.587 456.998 446.048 456.844 445.432 456.844C444.802 456.844 444.249 456.998 443.773 457.306C443.297 457.6 442.919 458.006 442.639 458.524C442.373 459.028 442.24 459.616 442.24 460.288C442.24 460.946 442.373 461.541 442.639 462.073C442.919 462.591 443.297 462.997 443.773 463.291C444.249 463.585 444.802 463.732 445.432 463.732ZM457.509 466V450.355H462.612C464.264 450.355 465.699 450.691 466.917 451.363C468.149 452.021 469.101 452.938 469.773 454.114C470.445 455.276 470.781 456.627 470.781 458.167C470.781 459.693 470.445 461.051 469.773 462.241C469.101 463.417 468.149 464.341 466.917 465.013C465.699 465.671 464.264 466 462.612 466H457.509ZM460.365 463.48H462.675C463.739 463.48 464.656 463.263 465.426 462.829C466.21 462.381 466.819 461.765 467.253 460.981C467.687 460.183 467.904 459.245 467.904 458.167C467.904 457.075 467.687 456.137 467.253 455.353C466.819 454.569 466.21 453.96 465.426 453.526C464.656 453.092 463.739 452.875 462.675 452.875H460.365V463.48ZM476.247 466.252C475.449 466.252 474.756 466.119 474.168 465.853C473.58 465.587 473.125 465.209 472.803 464.719C472.481 464.215 472.32 463.634 472.32 462.976C472.32 462.346 472.46 461.786 472.74 461.296C473.02 460.792 473.454 460.372 474.042 460.036C474.63 459.7 475.372 459.462 476.268 459.322L480.006 458.713V460.813L476.793 461.359C476.247 461.457 475.841 461.632 475.575 461.884C475.309 462.136 475.176 462.465 475.176 462.871C475.176 463.263 475.323 463.578 475.617 463.816C475.925 464.04 476.303 464.152 476.751 464.152C477.325 464.152 477.829 464.033 478.263 463.795C478.711 463.543 479.054 463.2 479.292 462.766C479.544 462.332 479.67 461.856 479.67 461.338V458.398C479.67 457.908 479.474 457.502 479.082 457.18C478.704 456.844 478.2 456.676 477.57 456.676C476.982 456.676 476.457 456.837 475.995 457.159C475.547 457.467 475.218 457.88 475.008 458.398L472.761 457.306C472.985 456.704 473.335 456.186 473.811 455.752C474.301 455.304 474.875 454.954 475.533 454.702C476.191 454.45 476.905 454.324 477.675 454.324C478.613 454.324 479.439 454.499 480.153 454.849C480.867 455.185 481.42 455.661 481.812 456.277C482.218 456.879 482.421 457.586 482.421 458.398V466H479.817V464.047L480.405 464.005C480.111 464.495 479.761 464.908 479.355 465.244C478.949 465.566 478.487 465.818 477.969 466C477.451 466.168 476.877 466.252 476.247 466.252ZM489.967 466.126C488.679 466.126 487.678 465.776 486.964 465.076C486.264 464.362 485.914 463.361 485.914 462.073V457.033H483.94V454.576H484.15C484.71 454.576 485.144 454.429 485.452 454.135C485.76 453.841 485.914 453.414 485.914 452.854V451.972H488.665V454.576H491.29V457.033H488.665V461.926C488.665 462.304 488.728 462.626 488.854 462.892C488.994 463.158 489.204 463.361 489.484 463.501C489.778 463.641 490.149 463.711 490.597 463.711C490.695 463.711 490.807 463.704 490.933 463.69C491.073 463.676 491.206 463.662 491.332 463.648V466C491.136 466.028 490.912 466.056 490.66 466.084C490.408 466.112 490.177 466.126 489.967 466.126ZM496.857 466.252C496.059 466.252 495.366 466.119 494.778 465.853C494.19 465.587 493.735 465.209 493.413 464.719C493.091 464.215 492.93 463.634 492.93 462.976C492.93 462.346 493.07 461.786 493.35 461.296C493.63 460.792 494.064 460.372 494.652 460.036C495.24 459.7 495.982 459.462 496.878 459.322L500.616 458.713V460.813L497.403 461.359C496.857 461.457 496.451 461.632 496.185 461.884C495.919 462.136 495.786 462.465 495.786 462.871C495.786 463.263 495.933 463.578 496.227 463.816C496.535 464.04 496.913 464.152 497.361 464.152C497.935 464.152 498.439 464.033 498.873 463.795C499.321 463.543 499.664 463.2 499.902 462.766C500.154 462.332 500.28 461.856 500.28 461.338V458.398C500.28 457.908 500.084 457.502 499.692 457.18C499.314 456.844 498.81 456.676 498.18 456.676C497.592 456.676 497.067 456.837 496.605 457.159C496.157 457.467 495.828 457.88 495.618 458.398L493.371 457.306C493.595 456.704 493.945 456.186 494.421 455.752C494.911 455.304 495.485 454.954 496.143 454.702C496.801 454.45 497.515 454.324 498.285 454.324C499.223 454.324 500.049 454.499 500.763 454.849C501.477 455.185 502.03 455.661 502.422 456.277C502.828 456.879 503.031 457.586 503.031 458.398V466H500.427V464.047L501.015 464.005C500.721 464.495 500.371 464.908 499.965 465.244C499.559 465.566 499.097 465.818 498.579 466C498.061 466.168 497.487 466.252 496.857 466.252Z" fill="#F4F6FB"/>
</g>
</svg>