<svg width="61" height="47" viewBox="0 0 61 47" fill="none" xmlns="http://www.w3.org/2000/svg">
<path d="M60.2067 2.51821C60.2061 1.85066 59.9407 1.2106 59.4687 0.738496C58.9968 0.26639 58.3568 0.000798485 57.6892 0H17.7966C17.1295 0.00159547 16.4902 0.267515 16.0188 0.739513C15.5474 1.21151 15.2822 1.85111 15.2814 2.51821L15.3033 9.39279C13.8214 9.69196 12.5036 10.5311 11.6057 11.7473C10.7078 12.9634 10.2938 14.4699 10.4441 15.9741C10.5944 17.4784 11.2983 18.8731 12.4192 19.8876C13.5401 20.902 14.9979 21.4637 16.5096 21.4637C18.0214 21.4637 19.4792 20.902 20.6 19.8876C21.7209 18.8731 22.4248 17.4784 22.5751 15.9741C22.7255 14.4699 22.3115 12.9634 21.4135 11.7473C20.5156 10.5311 19.1978 9.69196 17.7159 9.39279L17.6941 2.51821C17.6941 2.49022 17.7052 2.46337 17.725 2.44358C17.7448 2.42378 17.7716 2.41266 17.7996 2.41266H57.6892C57.7172 2.41266 57.7441 2.42378 57.7639 2.44358C57.7837 2.46337 57.7948 2.49022 57.7948 2.51821V32.1849C57.7948 32.2129 57.7837 32.2397 57.7639 32.2595C57.7441 32.2793 57.7172 32.2905 57.6892 32.2905H41.0984L42.1856 31.1784C42.5735 30.7944 42.8812 30.3371 43.0906 29.8331C43.3 29.3291 43.407 28.7884 43.4053 28.2426C43.4036 27.6968 43.2934 27.1568 43.0809 26.654C42.8684 26.1513 42.558 25.6959 42.1677 25.3143C41.7775 24.9328 41.3151 24.6327 40.8077 24.4316C40.3003 24.2305 39.758 24.1325 39.2123 24.1431C38.6666 24.1537 38.1285 24.2729 37.6293 24.4936C37.1301 24.7143 36.6798 25.0322 36.3047 25.4287L31.3739 30.4757L29.4136 26.7059C28.9353 25.7815 28.2116 25.0066 27.322 24.4663C26.4324 23.9259 25.4112 23.6409 24.3704 23.6426L10.8972 23.6222C5.28622 23.6222 0.71875 28.1874 0.71875 33.8006V43.5372C0.719548 44.2049 0.985115 44.8449 1.4572 45.317C1.92928 45.7891 2.56934 46.0546 3.23697 46.0554H23.9037C24.5712 46.0546 25.2112 45.7891 25.6832 45.317C26.1551 44.8448 26.4205 44.2048 26.4211 43.5372V38.681C26.8626 39.2886 27.4313 39.7925 28.0876 40.1576C28.7439 40.5228 29.4719 40.7403 30.221 40.7951C30.97 40.8499 31.7219 40.7406 32.4244 40.4748C33.1268 40.209 33.7628 39.7932 34.2879 39.2563L38.7363 34.7031H57.6892C58.3569 34.7023 58.9969 34.4368 59.469 33.9647C59.9411 33.4926 60.2066 32.8525 60.2074 32.1849L60.2067 2.51821ZM30.1992 38.3704C29.7694 38.3059 29.3609 38.1407 29.0071 37.8882C28.6533 37.6357 28.3642 37.303 28.1635 36.9175L26.2907 33.3211C26.1812 33.1136 26.0139 32.9423 25.809 32.8279C25.6041 32.7135 25.3705 32.6609 25.1364 32.6765C24.8905 32.6961 24.6562 32.7893 24.4641 32.944C24.2719 33.0986 24.1307 33.3075 24.059 33.5435C24.0271 33.6517 24.0109 33.764 24.0107 33.8768V43.5372C24.0107 43.565 23.9997 43.5917 23.98 43.6113C23.9604 43.631 23.9337 43.642 23.9059 43.642H8.94442V33.8745C8.94442 33.5546 8.81732 33.2477 8.59109 33.0215C8.36486 32.7953 8.05802 32.6682 7.73809 32.6682C7.41815 32.6682 7.11131 32.7953 6.88508 33.0215C6.65885 33.2477 6.53176 33.5546 6.53176 33.8745V43.642H3.23697C3.2091 43.642 3.18237 43.631 3.16259 43.6114C3.14282 43.5918 3.13161 43.5651 3.13141 43.5372V33.8006C3.13361 31.7417 3.95249 29.7677 5.40837 28.3118C6.86426 26.856 8.83823 26.0371 10.8972 26.0349L24.3689 26.056C24.9685 26.0549 25.5569 26.219 26.0693 26.5304C26.5818 26.8417 26.9986 27.2883 27.2739 27.821L30.0032 33.0655C30.0912 33.2347 30.218 33.3807 30.3733 33.4914C30.5286 33.602 30.708 33.6743 30.8966 33.7023C31.0853 33.7303 31.2779 33.7131 31.4586 33.6522C31.6393 33.5913 31.8031 33.4884 31.9363 33.352L38.0306 27.113C38.346 26.7912 38.7761 26.6076 39.2267 26.6025C39.6774 26.5974 40.1116 26.7712 40.4342 27.0859C40.7507 27.4043 40.9306 27.8336 40.9357 28.2826C40.9408 28.7315 40.7706 29.1648 40.4613 29.4903L32.5651 37.5697C32.2608 37.8798 31.8876 38.1136 31.4758 38.2521C31.064 38.3906 30.6253 38.4298 30.1954 38.3666L30.1992 38.3704ZM20.1942 15.3656C20.1944 16.0939 19.9785 16.8059 19.574 17.4114C19.1694 18.017 18.5943 18.489 17.9215 18.7677C17.2487 19.0464 16.5083 19.1193 15.794 18.9771C15.0798 18.835 14.4237 18.4842 13.9088 17.9691C13.394 17.454 13.0434 16.7978 12.9016 16.0835C12.7597 15.3692 12.8329 14.6288 13.1119 13.9561C13.3909 13.2834 13.8631 12.7085 14.4688 12.3042C15.0746 11.8999 15.7866 11.6844 16.5149 11.6848C17.4905 11.6864 18.4256 12.0748 19.1153 12.7648C19.805 13.4547 20.193 14.3901 20.1942 15.3656Z" fill="#232323"/>
<path d="M32.3938 8.72516H49.1181C49.438 8.72516 49.7449 8.59807 49.9711 8.37183C50.1973 8.1456 50.3244 7.83877 50.3244 7.51883C50.3244 7.19889 50.1973 6.89206 49.9711 6.66583C49.7449 6.4396 49.438 6.3125 49.1181 6.3125H32.3938C32.0739 6.3125 31.7671 6.4396 31.5408 6.66583C31.3146 6.89206 31.1875 7.19889 31.1875 7.51883C31.1875 7.83877 31.3146 8.1456 31.5408 8.37183C31.7671 8.59807 32.0739 8.72516 32.3938 8.72516Z" fill="#232323"/>
<path d="M32.2688 14.6002H49.2449C49.5649 14.6002 49.8717 14.4731 50.0979 14.2468C50.3242 14.0206 50.4513 13.7138 50.4513 13.3938C50.4513 13.0739 50.3242 12.7671 50.0979 12.5408C49.8717 12.3146 49.5649 12.1875 49.2449 12.1875H32.2688C31.9489 12.1875 31.6421 12.3146 31.4158 12.5408C31.1896 12.7671 31.0625 13.0739 31.0625 13.3938C31.0625 13.7138 31.1896 14.0206 31.4158 14.2468C31.6421 14.4731 31.9489 14.6002 32.2688 14.6002Z" fill="#232323"/>
<path d="M49.2412 17.8359H39.6516C39.3317 17.8359 39.0249 17.963 38.7986 18.1893C38.5724 18.4155 38.4453 18.7223 38.4453 19.0423C38.4453 19.3622 38.5724 19.669 38.7986 19.8953C39.0249 20.1215 39.3317 20.2486 39.6516 20.2486H49.2412C49.5612 20.2486 49.868 20.1215 50.0942 19.8953C50.3204 19.669 50.4475 19.3622 50.4475 19.0423C50.4475 18.7223 50.3204 18.4155 50.0942 18.1893C49.868 17.963 49.5612 17.8359 49.2412 17.8359Z" fill="#232323"/>
</svg>
