<svg width="20" height="20" viewBox="0 0 20 20" fill="none" xmlns="http://www.w3.org/2000/svg">
<path d="M3.46973 16.0443H4.52669V19.6667C4.52669 19.7964 4.60189 19.9144 4.71973 19.9689C4.76432 19.9897 4.8125 20 4.86003 20C4.93717 20 5.01367 19.9731 5.07487 19.9214L9.66992 16.0443H16.943C18.5804 16.0443 19.9128 14.7121 19.9128 13.0747V2.96956C19.9128 1.33219 18.5804 0 16.943 0H3.46973C1.83236 0 0.5 1.33219 0.5 2.96956V13.0747C0.5 14.7121 1.83236 16.0443 3.46973 16.0443ZM1.16667 2.96956C1.16667 1.69971 2.19987 0.666667 3.46973 0.666667H16.943C18.2129 0.666667 19.2461 1.69971 19.2461 2.96956V13.0747C19.2461 14.3446 18.2129 15.3776 16.943 15.3776H9.54818C9.4694 15.3776 9.39323 15.4054 9.33333 15.4562L5.19336 18.9492V15.7109C5.19336 15.5269 5.04427 15.3776 4.86003 15.3776H3.46973C2.19987 15.3776 1.16667 14.3446 1.16667 13.0747V2.96956Z" fill="#18283D"/>
</svg>
