<svg width="25" height="25" viewBox="0 0 25 25" fill="none" xmlns="http://www.w3.org/2000/svg">
<path d="M6.55374 5.9691L6.54096 5.95652C6.36708 5.78546 6.0807 5.78512 5.906 5.95676C4.64573 7.19492 4.02608 8.91855 4.20654 10.6912L6.55374 5.9691ZM6.55374 5.9691C6.71085 6.13645 6.70635 6.39348 6.54144 6.55528L6.5412 6.55552C5.46435 7.61347 4.93712 9.0923 5.09163 10.6077L6.55374 5.9691ZM4.6941 11.0756L4.6941 11.0756C4.94592 11.0509 5.11469 10.8342 5.09163 10.6077L4.6941 11.0756ZM4.6941 11.0756L4.68873 11.0762M4.6941 11.0756L4.68873 11.0762M4.68873 11.0762C4.67791 11.0774 4.66428 11.0781 4.64809 11.0781C4.41574 11.0781 4.22857 10.9058 4.20656 10.6913L4.68873 11.0762Z" fill="#FE634E" stroke="#353F4F"/>
<path d="M17.5975 16.9861L23.5192 22.9076H23.5188L24.3723 23.7612C24.5415 23.9303 24.5411 24.2039 24.3726 24.3722L24.3723 24.3725C24.2879 24.4569 24.1781 24.4991 24.0669 24.4991C23.9555 24.4991 23.8463 24.4573 23.7614 24.3725L16.9861 17.5974C16.817 17.4283 16.8173 17.1546 16.9859 16.9864L16.9861 16.9861C17.1551 16.8171 17.4285 16.8171 17.5975 16.9861Z" fill="#FE634E" stroke="#353F4F"/>
<path d="M10.5699 19.7904H11.0699V19.7765C15.9228 19.516 19.7904 15.4862 19.7904 10.5694C19.7904 5.48481 15.6549 1.3488 10.5699 1.3488C5.48473 1.3488 1.34928 5.48533 1.34928 10.5699C1.34928 15.6544 5.48477 19.7904 10.5699 19.7904ZM0.5 10.5699C0.5 5.01762 5.01762 0.5 10.5699 0.5C16.1216 0.5 20.6397 5.01764 20.6397 10.5699C20.6397 16.1221 16.1221 20.6397 10.5699 20.6397C5.01762 20.6397 0.5 16.1221 0.5 10.5699Z" fill="#FE634E" stroke="#353F4F"/>
</svg>
