<svg width="50" height="50" viewBox="0 0 50 50" fill="none" xmlns="http://www.w3.org/2000/svg">
<circle cx="25" cy="25" r="24.5" fill="white" stroke="black"/>
<path fill-rule="evenodd" clip-rule="evenodd" d="M25.0001 0C38.8072 0 50.0009 11.1898 50.0009 25.0035C50.0009 38.8098 38.8072 50 25.0001 50C11.193 50 0 38.8098 0 25.0035C9.76566e-05 11.1898 11.1938 0 25.0001 0ZM37.0132 13.2629C36.9432 13.1937 36.8484 13.155 36.7499 13.1555C36.6513 13.156 36.557 13.1956 36.4876 13.2656L21.3822 28.4915L13.474 20.6369C13.4036 20.5681 13.3092 20.5293 13.2108 20.5287C13.1619 20.5288 13.1134 20.5385 13.0683 20.5574C13.0232 20.5764 12.9823 20.604 12.9479 20.6389L9.2391 24.3849C9.16969 24.4548 9.13089 24.5495 9.13122 24.648C9.13155 24.7466 9.17098 24.841 9.24086 24.9104L21.1592 36.7368C21.2287 36.8057 21.3227 36.8443 21.4206 36.8442H21.4223C21.5211 36.8436 21.6156 36.804 21.6852 36.7339L40.7619 17.4984C40.7963 17.4637 40.8236 17.4226 40.8421 17.3773C40.8606 17.332 40.87 17.2836 40.8698 17.2347C40.8695 17.1858 40.8597 17.1374 40.8407 17.0923C40.8217 17.0473 40.794 17.0064 40.7592 16.972L37.0132 13.2629Z" fill="#35A462"/>
</svg>
