<svg width="21" height="17" viewBox="0 0 21 17" fill="none" xmlns="http://www.w3.org/2000/svg">
<path d="M15.9162 5.11366C16.443 4.55463 16.7404 3.82001 16.7404 3.03881C16.7404 1.36531 15.3751 0 13.7016 0C12.0281 0 10.6628 1.36173 10.6628 3.03881C10.6628 3.8236 10.9602 4.55821 11.4906 5.11724C11.1287 5.28567 10.7882 5.49709 10.4765 5.74794C10.5804 5.40034 10.6377 5.03482 10.6377 4.65855C10.6341 2.57654 8.93915 0.881541 6.85713 0.881541C4.77512 0.881541 3.0837 2.57654 3.0837 4.65497C3.0837 5.66552 3.47789 6.61156 4.18026 7.31393C1.96207 8.29222 0.5 10.4961 0.5 12.9472C0.5 13.3951 0.550169 13.8502 0.650507 14.3018C0.947938 15.6277 2.10541 16.5522 3.45997 16.5522H10.2543C10.8599 16.5522 11.4512 16.3587 11.9457 15.9968C12.5764 16.5235 13.3684 16.8138 14.2033 16.8138C16.1563 16.8138 17.7438 15.2263 17.7438 13.2733C17.7438 12.8899 17.6793 12.5172 17.5611 12.1588C17.6578 12.1015 17.751 12.0406 17.8334 11.9725C18.2455 11.6428 18.5358 11.1769 18.6504 10.6609C19.1665 8.37464 18.0018 6.07045 15.9162 5.11366ZM11.2326 3.03881C11.2326 1.67708 12.3399 0.57336 13.698 0.57336C15.0598 0.57336 16.1671 1.68066 16.1671 3.03881C16.1671 3.80568 15.8195 4.51521 15.2139 4.98465C14.7767 5.32508 14.2535 5.50426 13.698 5.50426C13.5583 5.50426 13.4221 5.49351 13.2895 5.47201C13.0817 5.43617 12.8846 5.37525 12.6947 5.29283C12.5155 5.214 12.3435 5.11007 12.1858 4.98823C11.5802 4.51521 11.2326 3.80568 11.2326 3.03881ZM3.65348 4.65497C3.65348 2.8883 5.09047 1.4549 6.85713 1.4549C8.6238 1.4549 10.0608 2.89189 10.0608 4.65855C10.0608 5.65477 9.60926 6.57573 8.82447 7.1885C8.25828 7.62928 7.57741 7.8622 6.85713 7.8622C6.67796 7.8622 6.49878 7.84787 6.32677 7.8192C6.20493 7.7977 6.08309 7.76903 5.96126 7.7332C5.8215 7.69378 5.68533 7.64361 5.55274 7.58627C5.31981 7.48235 5.09763 7.34976 4.88979 7.1885C4.105 6.57214 3.65348 5.65118 3.65348 4.65497ZM10.2543 15.9788H3.45997C2.37059 15.9788 1.44604 15.237 1.20595 14.1763C1.11636 13.7678 1.06978 13.3521 1.06978 12.9472C1.06978 10.6322 2.51034 8.55382 4.66761 7.7332C4.68911 7.75111 4.7142 7.76186 4.7357 7.77978C4.77512 7.80487 4.81095 7.82995 4.85037 7.85504C4.89696 7.8837 4.94354 7.91237 4.99371 7.94104C5.03313 7.96254 5.07255 7.98763 5.11197 8.00554C5.16214 8.03063 5.2123 8.05571 5.26247 8.07721C5.30189 8.09513 5.34489 8.11663 5.38431 8.13455C5.43448 8.15605 5.48823 8.17755 5.54199 8.19547C5.58499 8.2098 5.62441 8.22772 5.66741 8.24205C5.72116 8.25997 5.7785 8.27431 5.83225 8.29222C5.87167 8.30297 5.91467 8.31731 5.95409 8.32806C6.01142 8.34239 6.07234 8.35314 6.12968 8.36389C6.1691 8.37106 6.20852 8.38181 6.24794 8.38539C6.31244 8.39614 6.38053 8.40331 6.44861 8.41048C6.48086 8.41406 6.5167 8.42123 6.54895 8.42123C6.64929 8.4284 6.75321 8.43198 6.85355 8.43198C6.95747 8.43198 7.05781 8.4284 7.15815 8.42123C7.1904 8.41764 7.22623 8.41406 7.25848 8.41048C7.32657 8.40331 7.39466 8.39614 7.45916 8.38539C7.49858 8.37823 7.538 8.37106 7.57741 8.36389C7.63833 8.35314 7.69567 8.34239 7.75659 8.32806C7.79959 8.31731 7.83901 8.30656 7.87843 8.29222C7.93218 8.27789 7.98952 8.25997 8.04327 8.24205C8.08627 8.22772 8.12569 8.21339 8.16869 8.19547C8.22245 8.17755 8.27261 8.15605 8.32637 8.13455C8.36937 8.11663 8.40879 8.09871 8.44821 8.07721C8.49837 8.05213 8.54854 8.03063 8.59871 8.00554C8.63813 7.98404 8.67755 7.96254 8.71697 7.94104C8.76355 7.91237 8.81372 7.88729 8.86031 7.85504C8.89973 7.82995 8.93915 7.80487 8.97498 7.77978C8.99648 7.76545 9.02157 7.75111 9.04307 7.7332C9.11832 7.76186 9.18999 7.79053 9.26166 7.82278C9.41933 7.89087 9.56984 7.96254 9.71677 8.04496C9.76693 8.07363 9.81352 8.1023 9.86369 8.13097C9.96044 8.1883 10.0572 8.24205 10.1504 8.30297C10.2077 8.33881 10.2579 8.38181 10.3116 8.42123C10.394 8.47856 10.4765 8.53948 10.5517 8.6004C10.6055 8.64341 10.6592 8.69357 10.713 8.74016C10.7846 8.80466 10.8599 8.86558 10.928 8.93367C10.9817 8.98384 11.0283 9.03759 11.0821 9.09134C11.1466 9.15943 11.2111 9.22752 11.2756 9.29919C11.3258 9.35652 11.3688 9.41386 11.4153 9.4712C11.4727 9.54286 11.53 9.61812 11.5874 9.69337C11.6304 9.75429 11.6734 9.8188 11.7128 9.87971C11.7629 9.95855 11.8131 10.0374 11.8633 10.1162C11.9027 10.1807 11.9385 10.2488 11.9744 10.3169C11.9995 10.3635 12.021 10.4101 12.046 10.4602C12.0102 10.4853 11.978 10.514 11.9457 10.5427C11.9278 10.557 11.9135 10.5677 11.8955 10.5821C11.8418 10.6287 11.788 10.6753 11.7379 10.7254C11.7271 10.7362 11.7164 10.7469 11.7092 10.7577C11.6698 10.7971 11.6304 10.8365 11.5909 10.8795C11.573 10.8974 11.5551 10.9189 11.5372 10.9404C11.5085 10.9727 11.4798 11.0049 11.4512 11.0408C11.4333 11.0623 11.4153 11.0874 11.3974 11.1124C11.3723 11.1447 11.3473 11.1769 11.3258 11.2092C11.3078 11.2343 11.2899 11.2594 11.272 11.2844C11.2505 11.3167 11.229 11.349 11.2075 11.3812C11.1896 11.4063 11.1753 11.435 11.1573 11.4636C11.1394 11.4959 11.1179 11.5281 11.1 11.564C11.0857 11.5926 11.0713 11.6213 11.0534 11.65C11.0355 11.6822 11.0176 11.7181 11.0032 11.7503C10.9889 11.779 10.9746 11.8076 10.9638 11.8363C10.9495 11.8721 10.9352 11.9044 10.9208 11.9402C10.9101 11.9689 10.8957 12.0011 10.885 12.0298C10.8707 12.0657 10.8599 12.1015 10.8456 12.1373C10.8348 12.166 10.8241 12.1982 10.8169 12.2269C10.8061 12.2627 10.7954 12.3022 10.7846 12.338C10.7775 12.3667 10.7667 12.3989 10.7596 12.4276C10.7488 12.467 10.7416 12.5064 10.7345 12.5458C10.7273 12.5745 10.7201 12.6032 10.7166 12.6354C10.7094 12.6784 10.7022 12.7178 10.6986 12.7608C10.6951 12.7895 10.6915 12.8182 10.6879 12.8469C10.6807 12.8934 10.6771 12.94 10.6736 12.9866C10.67 13.0117 10.67 13.0332 10.6664 13.0583C10.6628 13.1299 10.6592 13.2016 10.6592 13.2733C10.6592 13.388 10.6664 13.4991 10.6771 13.6137C10.6807 13.6496 10.6879 13.689 10.6915 13.7248C10.7022 13.8001 10.713 13.8753 10.7273 13.9506C10.7345 13.9936 10.7452 14.0366 10.756 14.0796C10.7703 14.1477 10.7882 14.2122 10.8061 14.2767C10.8205 14.3233 10.8348 14.3663 10.8492 14.4093C10.8707 14.4702 10.8922 14.5347 10.9172 14.5956C10.9352 14.6386 10.9531 14.6852 10.9746 14.7282C11.0032 14.7891 11.0319 14.8464 11.0606 14.9038C11.0821 14.9468 11.1036 14.9898 11.1287 15.0292C11.1609 15.0865 11.1968 15.1439 11.2326 15.2012C11.2577 15.2406 11.2828 15.2801 11.3078 15.3159C11.3508 15.3768 11.3974 15.4341 11.444 15.4915C11.4691 15.5201 11.4906 15.5524 11.5157 15.5811C11.5193 15.5847 11.5229 15.5882 11.5229 15.5918C11.1573 15.8427 10.7094 15.9788 10.2543 15.9788ZM14.2069 16.244C13.4364 16.244 12.709 15.9502 12.1535 15.4198C11.5694 14.8644 11.2326 14.0796 11.2326 13.2733C11.2326 12.2699 11.7343 11.3418 12.5692 10.7899C13.0566 10.471 13.6228 10.299 14.2033 10.299C14.4291 10.299 14.6512 10.3241 14.8627 10.3742C14.9594 10.3957 15.0526 10.4244 15.1458 10.4531C15.7406 10.6502 16.2602 11.0336 16.6258 11.546C16.6688 11.6034 16.7082 11.6643 16.744 11.7288C16.8193 11.8542 16.8874 11.9868 16.9447 12.1266C17.0952 12.4885 17.1704 12.8719 17.1704 13.2697C17.1776 14.911 15.8446 16.244 14.2069 16.244ZM18.0986 10.5355C18.0126 10.9261 17.794 11.2773 17.4786 11.5281C17.4356 11.564 17.389 11.5962 17.3425 11.6285C17.321 11.5855 17.2959 11.5425 17.2708 11.503C17.2565 11.478 17.2457 11.4529 17.2278 11.4314C17.1919 11.3705 17.1525 11.3131 17.1095 11.2522C17.1024 11.2414 17.0952 11.2307 17.088 11.2199C17.0379 11.1519 16.9877 11.0838 16.9339 11.0193C16.9232 11.0049 16.9089 10.9906 16.8945 10.9763C16.8515 10.9261 16.8121 10.8795 16.7655 10.8329C16.744 10.8114 16.7225 10.7899 16.701 10.772C16.6616 10.7326 16.6258 10.6968 16.5863 10.6609C16.5613 10.6394 16.5362 10.6179 16.5111 10.5964C16.4752 10.5642 16.4358 10.5319 16.3964 10.4997C16.3677 10.4782 16.3391 10.4567 16.314 10.4352C16.2746 10.4065 16.2387 10.3778 16.1993 10.3527C16.1707 10.3312 16.1384 10.3133 16.1097 10.2954C16.0703 10.2703 16.0309 10.2452 15.9915 10.2237C15.9592 10.2058 15.927 10.1879 15.8947 10.17C15.8553 10.1485 15.8123 10.127 15.7729 10.1055C15.7406 10.0876 15.7084 10.0732 15.6725 10.0589C15.6295 10.041 15.5865 10.0231 15.5435 10.0051C15.5113 9.9908 15.4755 9.97647 15.4396 9.96572C15.3966 9.9478 15.35 9.93347 15.307 9.91913C15.2712 9.90838 15.2389 9.89763 15.2031 9.88688C15.1565 9.87255 15.1099 9.8618 15.0633 9.85105C15.0275 9.84388 14.9953 9.83313 14.9594 9.82596C14.9093 9.81521 14.8591 9.80804 14.8089 9.79729C14.7767 9.79013 14.7444 9.78654 14.7086 9.77938C14.6512 9.77221 14.5975 9.76504 14.5402 9.76146C14.5115 9.75787 14.4828 9.75429 14.4542 9.75429C14.3681 9.74712 14.2821 9.74354 14.1961 9.74354C14.1137 9.74354 14.0349 9.74712 13.956 9.75071C13.931 9.75071 13.9059 9.75429 13.8772 9.75788C13.8235 9.76146 13.7697 9.76863 13.716 9.77579C13.6873 9.77938 13.655 9.78654 13.6264 9.79013C13.5762 9.79729 13.526 9.80804 13.4759 9.81879C13.4472 9.82596 13.4149 9.83313 13.3863 9.83671C13.3361 9.84746 13.2859 9.8618 13.2358 9.87613C13.2071 9.8833 13.182 9.89046 13.1533 9.90122C13.096 9.91913 13.0387 9.94063 12.9813 9.95855C12.9634 9.96572 12.9455 9.9693 12.9276 9.97647C12.8523 10.0051 12.7807 10.0374 12.709 10.0696C12.6875 10.0804 12.666 10.0911 12.6481 10.1019C12.6087 10.1234 12.5656 10.1413 12.5262 10.1628C12.5226 10.1556 12.5155 10.1485 12.5119 10.1377C12.4438 10.0087 12.3757 9.8833 12.3005 9.76146C12.2897 9.74712 12.2826 9.72921 12.2718 9.71129C12.1965 9.58945 12.1141 9.46761 12.0281 9.35294C12.0102 9.33144 11.9959 9.30635 11.978 9.28485C11.8919 9.17018 11.8059 9.05909 11.7128 8.95159C11.6984 8.93367 11.6805 8.91575 11.6662 8.89784C11.5694 8.78675 11.4691 8.67924 11.3616 8.57532L11.358 8.57174C11.2541 8.46781 11.143 8.37106 11.0319 8.27431C11.014 8.25997 10.9997 8.24564 10.9817 8.2313C10.8707 8.14172 10.7596 8.05213 10.6413 7.96971C10.6198 7.95537 10.5983 7.93746 10.5768 7.92312C10.4586 7.8407 10.3367 7.76186 10.2149 7.68661C10.2005 7.67586 10.1826 7.66869 10.1647 7.65794C10.0393 7.58269 9.91027 7.5146 9.78127 7.4501C9.7741 7.44652 9.77052 7.44293 9.76335 7.43935C10.2543 6.57931 11.0391 5.90203 11.9565 5.54368C11.9708 5.55443 11.9851 5.56159 11.9995 5.57235C12.0281 5.59026 12.0568 5.61176 12.0855 5.62968C12.1249 5.65477 12.1643 5.67985 12.2037 5.70135C12.2324 5.71927 12.2646 5.7336 12.2969 5.75152C12.3363 5.77302 12.3793 5.79094 12.4187 5.81244C12.451 5.82677 12.4832 5.84111 12.5155 5.85544C12.5585 5.87336 12.6015 5.89128 12.6445 5.90561C12.6767 5.91636 12.709 5.9307 12.7412 5.94145C12.7842 5.95578 12.8308 5.97011 12.8738 5.98086C12.9061 5.98803 12.9383 5.99878 12.9706 6.00595C13.0172 6.0167 13.0673 6.02745 13.1139 6.03462C13.1462 6.04178 13.1748 6.04895 13.2071 6.05253C13.2608 6.0597 13.3146 6.06687 13.3684 6.07404C13.3934 6.07762 13.4221 6.0812 13.4472 6.08479C13.5296 6.09195 13.6084 6.09554 13.6909 6.09554C13.7733 6.09554 13.8557 6.09195 13.9345 6.08479C13.9596 6.0812 13.9883 6.07762 14.0134 6.07404C14.0671 6.06687 14.1209 6.06328 14.1746 6.05253C14.2069 6.04895 14.2356 6.04178 14.2678 6.03462C14.3144 6.02387 14.3646 6.0167 14.4112 6.00595C14.4434 5.99878 14.4757 5.98803 14.5079 5.98086C14.5545 5.96653 14.5975 5.95578 14.6441 5.94145C14.6763 5.9307 14.7086 5.91994 14.7408 5.90919C14.7838 5.89486 14.8268 5.87694 14.8698 5.85903C14.9021 5.84469 14.9343 5.83036 14.963 5.81602C15.006 5.79811 15.0454 5.77661 15.0884 5.7551C15.1207 5.74077 15.1494 5.72285 15.178 5.70494C15.2174 5.68343 15.2569 5.65835 15.2963 5.63327C15.3249 5.61535 15.3536 5.59743 15.3859 5.57593C15.4002 5.56518 15.4145 5.55801 15.4289 5.54726C17.432 6.30696 18.5716 8.4284 18.0986 10.5355Z" fill="black"/>
<path d="M12.29 13.73V12.88H16.04V13.73H12.29Z" fill="black"/>
</svg>
