<svg width="119" height="119" viewBox="0 0 119 119" fill="none" xmlns="http://www.w3.org/2000/svg">
<path d="M59.5 0C26.6402 0 0 26.6402 0 59.5C0 92.3599 26.6402 119 59.5 119C92.3599 119 119 92.3599 119 59.5C119 26.6402 92.3599 0 59.5 0ZM59.5 18.1289C71.2953 18.1289 80.8573 27.6907 80.8573 39.4861C80.8573 51.2815 71.2953 60.8435 59.5 60.8435C47.7047 60.8435 38.1428 51.2815 38.1428 39.4861C38.1428 27.6907 47.7047 18.1289 59.5 18.1289ZM95.2048 89.2686C86.6772 99.4836 73.8474 105.985 59.5 105.985C45.1526 105.985 32.3229 99.4836 23.7954 89.2686C22.5984 87.8323 22.1568 85.9196 22.603 84.104C24.6484 75.7649 29.4455 68.5039 35.9812 63.3441C38.0103 61.7428 40.8852 61.7011 42.9634 63.2441C47.3814 66.5285 53.1688 68.5178 59.5 68.5178C65.8312 68.5178 71.6186 66.5285 76.0366 63.2441C78.1148 61.7011 80.9898 61.7428 83.0188 63.3441C89.5546 68.5039 94.3515 75.7649 96.3971 84.104C96.8434 85.9196 96.4015 87.8323 95.2048 89.2686Z" fill="#FE634E"/>
</svg>
