<svg width="75" height="75" viewBox="0 0 75 75" fill="none" xmlns="http://www.w3.org/2000/svg">
<path d="M60.6626 0H37.5002C36.072 0 34.9141 1.15781 34.9141 2.58618V7.75854L60.9073 2.79126C61.5792 2.67261 62.0692 2.08872 62.0692 1.4064C62.069 0.62959 61.4395 0 60.6626 0Z" fill="#FF5050"/>
<path d="M46.7086 20.4623L40.6181 16.6558C39.4839 15.9468 38.795 14.7037 38.795 13.3662V10.3438H31.0363V13.366C31.0363 14.7036 30.3472 15.9468 29.213 16.6556L23.1225 20.4622C21.6102 21.4073 20.6914 23.065 20.6914 24.8483V72.4125C20.6914 73.8408 21.8494 74.9987 23.2776 74.9987H46.5535C47.9817 74.9987 49.1397 73.8408 49.1397 72.4125V24.8485C49.1397 23.0649 48.2211 21.4073 46.7086 20.4623Z" fill="#FF5050"/>
<path d="M45.216 68.5333H29.7431V24.8485C29.7431 23.0652 30.119 21.4074 30.7377 20.4623L33.2294 16.6558C33.3809 16.4243 33.5094 16.1297 33.6166 15.7965C33.6871 15.5772 33.9056 15.4424 34.1344 15.4688C34.3908 15.4982 34.6509 15.5161 34.9156 15.5161C36.3895 15.5161 37.7625 15.0976 38.9362 14.3839C38.8467 14.0557 38.795 13.7149 38.795 13.3659V10.3438H31.0363V13.366C31.0363 14.7036 30.3472 15.9468 29.213 16.6556L23.1225 20.4622C21.6102 21.4073 20.6914 23.065 20.6914 24.8483V72.4125C20.6914 73.8409 21.8492 74.9987 23.2776 74.9987H30.801C30.2167 74.9987 29.7431 73.8408 29.7431 72.4125V71.1194H45.2604C46.003 71.1194 46.5995 70.4932 46.5507 69.7401C46.5059 69.0531 45.9046 68.5333 45.216 68.5333Z" fill="#C84146"/>
<path d="M58.3202 12.543L36.2072 5.17188L34.9141 10.3442L59.1659 16.4071C59.8633 16.5815 60.4785 15.9171 60.2513 15.2351L59.8706 14.0931C59.6266 13.3614 59.0522 12.787 58.3202 12.543Z" fill="#C84146"/>
<path d="M27.1538 2.58594C19.2742 2.58594 12.9197 9.03301 12.9297 16.9125C12.9366 22.5409 13.5213 28.0795 14.1401 33.94C14.8164 40.3499 15.516 46.9771 15.516 54.3102V60.7757C15.516 61.4898 16.0951 62.0688 16.8092 62.0688H19.3954C20.1095 62.0688 20.6885 61.4898 20.6885 60.7757V54.3102C20.6885 46.7056 19.9744 39.9409 19.2843 33.3982C18.6779 27.6541 18.1051 22.2288 18.1025 16.8503C18.0997 11.8492 22.1529 7.7583 27.1541 7.7583H34.9128V2.58594H27.1538Z" fill="#707487"/>
<path d="M41.3805 59.4865H28.4495C27.0211 59.4865 25.8633 58.3287 25.8633 56.9003V41.3831C25.8633 39.9547 27.0211 38.7969 28.4495 38.7969H41.3805C42.8089 38.7969 43.9667 39.9547 43.9667 41.3831V56.9003C43.9668 58.3285 42.8087 59.4865 41.3805 59.4865Z" fill="#FFF082"/>
<path d="M43.964 33.578C43.0713 33.578 42.3477 32.8544 42.3477 31.9617V25.7436L42.21 25.6578C41.4511 25.188 41.2174 24.1917 41.6872 23.4327C42.157 22.6737 43.1545 22.4414 43.9123 22.9099L44.2078 23.093C45.0703 23.6348 45.5803 24.5566 45.5803 25.5643V31.9616C45.5803 32.8544 44.8567 33.578 43.964 33.578ZM38.7902 23.2307C38.4974 23.2307 38.2016 23.1511 37.9353 22.9856L37.0171 22.4123C36.8884 22.3327 36.7595 22.2469 36.6319 22.1585C35.897 21.6521 35.7127 20.6445 36.2203 19.9107C36.7267 19.1745 37.7343 18.9889 38.4681 19.4991C38.5526 19.5571 38.6386 19.6128 38.7257 19.667L39.6476 20.2427C40.4053 20.7163 40.635 21.7126 40.1629 22.4703C39.8559 22.9617 39.3294 23.2307 38.7902 23.2307Z" fill="#FF7873"/>
<path d="M40.0875 42.6762H29.7426V38.7969H28.4495C27.0212 38.7969 25.8633 39.9547 25.8633 41.3831V56.9003C25.8633 58.3285 27.0212 59.4865 28.4495 59.4865H29.7426V51.7278H38.7943C39.5084 51.7278 40.0875 51.1487 40.0875 50.4346C40.0875 49.7205 39.5084 49.1415 38.7943 49.1415H29.7426V46.5553H40.0875C40.8016 46.5553 41.3807 45.9762 41.3807 45.2621V43.9689C41.3805 43.2551 40.8016 42.6762 40.0875 42.6762Z" fill="#FFDC64"/>
<path d="M34.9146 12.9307C37.7712 12.9307 40.0869 10.6149 40.0869 7.7583C40.0869 4.90168 37.7712 2.58594 34.9146 2.58594C32.0579 2.58594 29.7422 4.90168 29.7422 7.7583C29.7422 10.6149 32.0579 12.9307 34.9146 12.9307Z" fill="#D5DCED"/>
<path d="M34.9143 10.3442C36.3426 10.3442 37.5005 9.18637 37.5005 7.75806C37.5005 6.32975 36.3426 5.17188 34.9143 5.17188C33.486 5.17188 32.3281 6.32975 32.3281 7.75806C32.3281 9.18637 33.486 10.3442 34.9143 10.3442Z" fill="#AFB9D2"/>
<path d="M15.5156 54.3127V60.7783C15.5156 61.4924 16.0947 62.0714 16.8088 62.0714H19.395C20.1091 62.0714 20.6881 61.4924 20.6881 60.7783V54.3127C20.6881 53.439 20.6766 52.579 20.6587 51.7266H15.5156V54.3127Z" fill="#464655"/>
<path d="M20.5229 47.8438H15.3438C15.4091 49.1171 15.4584 50.4091 15.4872 51.7231H20.6605C20.633 50.4066 20.5857 49.1149 20.5229 47.8438Z" fill="#AFB9D2"/>
<path d="M22.6289 8.98154C23.7848 8.30801 25.1019 7.88452 26.5083 7.78433V2.60156C25.1568 2.66235 23.8553 2.9127 22.6289 3.32695V8.98154Z" fill="#AFB9D2"/>
</svg>
