<svg width="21" height="21" viewBox="0 0 21 21" fill="none" xmlns="http://www.w3.org/2000/svg">
<path d="M6.18213 4.9832C5.88725 4.6931 5.40856 4.6931 5.11328 4.9832C4.01765 6.05961 3.47942 7.55882 3.63606 9.09688C3.67521 9.48002 4.00366 9.76581 4.38725 9.76581C4.41243 9.76581 4.438 9.76463 4.46317 9.76188C4.87873 9.72106 5.1816 9.35676 5.14005 8.94888C5.02857 7.85559 5.40856 6.79292 6.18213 6.03292C6.47742 5.74321 6.47742 5.27292 6.18213 4.98281V4.9832Z" fill="#FFE2CE"/>
<path d="M20.4517 19.2325L15.0312 13.8123C14.7398 13.5209 14.2678 13.5209 13.9764 13.8123C13.685 14.1033 13.685 14.5757 13.9764 14.8671L19.3968 20.2873C19.5427 20.4332 19.7332 20.5058 19.9241 20.5058C20.1149 20.5058 20.3058 20.4328 20.4513 20.2873C20.7427 19.9963 20.7427 19.5239 20.4513 19.2325H20.4517Z" fill="#F17925"/>
<path d="M9.12416 0.5C4.46129 0.5 0.667969 4.29332 0.667969 8.95619C0.667969 13.6191 4.46129 17.4124 9.12416 17.4124C13.787 17.4124 17.5804 13.6191 17.5804 8.95619C17.5804 4.29332 13.7866 0.5 9.12416 0.5ZM9.12416 15.9329C5.27688 15.9329 2.14745 12.8031 2.14745 8.95619C2.14745 5.10931 5.27688 1.97909 9.12416 1.97909C12.9714 1.97909 16.1009 5.10891 16.1009 8.9558C16.1009 12.8027 12.971 15.9325 9.12416 15.9325V15.9329Z" fill="#F17925"/>
</svg>
