<svg width="26" height="27" viewBox="0 0 26 27" fill="none" xmlns="http://www.w3.org/2000/svg">
<circle cx="13" cy="13.1797" r="13" fill="#FFF1E7"/>
<path d="M8.58139 11.1797C8.40698 11.1797 8.26667 11.2435 8.16046 11.3712C8.05426 11.4988 8.00078 11.6478 8 11.818C8 11.8605 8.05814 12.0095 8.17442 12.2648L12.3895 16.8925C12.4864 16.9988 12.5833 17.0733 12.6802 17.1159C12.7771 17.1584 12.8837 17.1797 13 17.1797C13.1163 17.1797 13.2229 17.1584 13.3198 17.1159C13.4167 17.0733 13.5135 16.9988 13.6104 16.8925L17.8256 12.2648C17.8837 12.201 17.9275 12.1316 17.9569 12.0567C17.9864 11.9818 18.0007 11.9022 18 11.818C18 11.6478 17.9469 11.4988 17.8407 11.3712C17.7345 11.2435 17.5938 11.1797 17.4186 11.1797H8.58139Z" fill="#252525"/>
</svg>