<svg width="26" height="26" viewBox="0 0 26 26" fill="none" xmlns="http://www.w3.org/2000/svg">
<path fill-rule="evenodd" clip-rule="evenodd" d="M18.0916 10.3029C13.8097 10.3029 10.3329 13.7796 10.3329 18.0616C10.3329 22.344 13.8097 25.8203 18.0916 25.8203C22.374 25.8203 25.8504 22.344 25.8504 18.0616C25.8504 13.7796 22.374 10.3029 18.0916 10.3029ZM0 12.8891V21.8946C0 23.3148 1.15119 24.466 2.57134 24.466H9.471C9.94687 24.466 10.3329 24.0795 10.3329 23.6036C10.3329 23.1277 9.94687 22.7417 9.471 22.7417C9.471 22.7417 5.08144 22.7417 2.57134 22.7417C2.10333 22.7417 1.72429 22.3626 1.72429 21.8946V12.8891C1.72429 12.4137 1.33781 12.0272 0.861941 12.0272C0.386487 12.0272 0 12.4137 0 12.8891ZM17.2297 14.6027V18.0616C17.2297 18.3881 17.4143 18.6869 17.7064 18.8329L20.4615 20.2105C20.8869 20.4232 21.4053 20.2506 21.618 19.8248C21.8307 19.3994 21.6582 18.8809 21.2324 18.6682L18.954 17.529V14.6027C18.954 14.1268 18.5675 13.7403 18.0916 13.7403C17.6162 13.7403 17.2297 14.1268 17.2297 14.6027ZM4.72971 18.924H7.31594C7.7914 18.924 8.17788 18.5375 8.17788 18.0616C8.17788 17.5862 7.7914 17.1997 7.31594 17.1997H4.72971C4.25384 17.1997 3.86735 17.5862 3.86735 18.0616C3.86735 18.5375 4.25384 18.924 4.72971 18.924ZM4.72971 16.3377H7.31594C7.7914 16.3377 8.17788 15.9512 8.17788 15.4754C8.17788 14.9999 7.7914 14.6134 7.31594 14.6134H4.72971C4.25384 14.6134 3.86735 14.9999 3.86735 15.4754C3.86735 15.9512 4.25384 16.3377 4.72971 16.3377ZM4.72971 13.7515H7.31594C7.7914 13.7515 8.17788 13.365 8.17788 12.8891C8.17788 12.4137 7.7914 12.0272 7.31594 12.0272H4.72971C4.25384 12.0272 3.86735 12.4137 3.86735 12.8891C3.86735 13.365 4.25384 13.7515 4.72971 13.7515ZM12.0692 3.40655H6.89677V1.68225C6.89677 1.20639 6.51028 0.820312 6.03441 0.820312C5.55896 0.820312 5.17247 1.20639 5.17247 1.68225V3.40655H2.57134C1.15119 3.40655 0 4.55773 0 5.97747V9.44096C0 9.91683 0.386487 10.3029 0.861941 10.3029C1.33781 10.3029 1.72429 9.91683 1.72429 9.44096V8.57902H24.1381V10.3298C24.1381 10.8057 24.5245 11.1922 25.0004 11.1922C25.4763 11.1922 25.8624 10.8057 25.8624 10.3298V5.97747C25.8624 5.29553 25.5913 4.64173 25.1092 4.15966C24.6272 3.67717 23.9734 3.40655 23.2914 3.40655H20.6899V1.68225C20.6899 1.20639 20.3038 0.820312 19.8279 0.820312C19.3521 0.820312 18.9656 1.20639 18.9656 1.68225V3.40655H13.7931V1.68225C13.7931 1.20639 13.407 0.820312 12.9312 0.820312C12.4553 0.820312 12.0692 1.20639 12.0692 1.68225V3.40655Z" fill="#FFCCA8"/>
</svg>