<svg width="59" height="60" viewBox="0 0 59 60" fill="none" xmlns="http://www.w3.org/2000/svg">
<path fill-rule="evenodd" clip-rule="evenodd" d="M29.0588 59.0365C45.1076 59.0365 58.1177 45.9327 58.1177 29.7682C58.1177 13.6039 45.1076 0.5 29.0588 0.5C13.0101 0.5 0 13.6039 0 29.7682C0 45.9327 13.0101 59.0365 29.0588 59.0365ZM38.1242 14.1344C38.5654 12.5557 37.0444 11.6221 35.6552 12.619L16.2629 26.5335C14.7564 27.6145 14.9934 29.7682 16.6189 29.7682H21.7254V29.7284H31.6778L23.5685 32.6103L19.9935 45.4022C19.5523 46.9809 21.0732 47.9144 22.4625 46.9176L41.8548 33.0031C43.3613 31.9221 43.1242 29.7682 41.4988 29.7682H33.7549L38.1242 14.1344Z" fill="#FE634E"/>
</svg>