<svg width="40" height="40" viewBox="0 0 40 40" fill="none" xmlns="http://www.w3.org/2000/svg">
<path fill-rule="evenodd" clip-rule="evenodd" d="M19.8569 40C30.8235 40 39.7138 31.0457 39.7138 20C39.7138 8.95432 30.8235 0 19.8569 0C8.89021 0 0 8.95432 0 20C0 31.0457 8.89021 40 19.8569 40ZM26.0515 9.31685C26.3531 8.23806 25.3137 7.60013 24.3644 8.28131L11.113 17.7896C10.0835 18.5283 10.2455 20 11.3563 20H14.8457V19.9728H21.6465L16.1051 21.9421L13.6622 30.6832C13.3607 31.762 14.4 32.3999 15.3494 31.7187L28.6008 22.2105C29.6302 21.4718 29.4682 20 28.3575 20H23.0659L26.0515 9.31685Z" fill="#BF453A"/>
</svg>
